<svg width="125" height="125" viewBox="0 0 125 125" fill="none" xmlns="http://www.w3.org/2000/svg">
<circle cx="62.5" cy="62.5" r="62.5" fill="#1D4D56"/>
<path d="M66.5689 10.2947L69.4578 10.5741L69.5748 9.60705L67.1971 9.38943L67.6777 5.41742L66.5724 5.28368L66.045 9.64254C65.999 10.0225 66.1881 10.2556 66.5689 10.2947Z" fill="white"/>
<path d="M78.4966 10.0076C77.9917 11.3491 78.4925 12.7049 79.9512 13.254C81.4035 13.8006 82.674 13.1116 83.1789 11.7701C83.6814 10.4351 83.1806 9.07928 81.7284 8.53266C80.2696 7.98359 78.9991 8.67264 78.4966 10.0076ZM79.5386 10.3998C79.8695 9.52069 80.5191 9.11836 81.3852 9.44437C82.2513 9.77038 82.4679 10.4987 82.137 11.3779C81.8036 12.2635 81.1605 12.6683 80.2944 12.3423C79.4283 12.0163 79.2052 11.2855 79.5386 10.3998Z" fill="white"/>
<path d="M92.2042 13.5645L90.5469 18.3929L92.4277 19.7102L96.4046 16.5065L95.4813 15.8598L91.761 18.9034L91.533 18.7438L93.1275 14.2112L92.2042 13.5645Z" fill="white"/>
<path d="M99.792 25.9594L102.1 28.5903L102.833 27.9478L101.259 26.1538L102.006 25.4975L103.351 27.03L104.083 26.3875L102.739 24.855L103.481 24.2033L105.056 25.9973L105.788 25.3548L103.479 22.724L99.792 25.9594Z" fill="white"/>
<path d="M110.869 43.4613L111.881 46.1815L112.802 45.8637L111.958 43.6303L115.74 42.325L115.377 41.2726L111.226 42.705C110.865 42.8298 110.738 43.1018 110.869 43.4613Z" fill="white"/>
<path d="M116.344 54.0619C114.917 54.1946 113.917 55.238 114.061 56.79C114.205 58.335 115.38 59.1761 116.808 59.0434C118.228 58.9113 119.228 57.8679 119.084 56.3229C118.94 54.771 117.765 53.9298 116.344 54.0619ZM116.447 55.1705C117.383 55.0835 118.029 55.4916 118.114 56.4131C118.2 57.3346 117.64 57.8479 116.704 57.9349C115.762 58.0225 115.117 57.6213 115.031 56.6998C114.946 55.7783 115.505 55.2581 116.447 55.1705Z" fill="white"/>
<path d="M119.142 67.9444L114.075 68.5661L113.713 70.8336L118.333 73.0086L118.511 71.8954L114.147 69.8812L114.191 69.6063L118.964 69.0576L119.142 67.9444Z" fill="white"/>
<path d="M111.315 80.1896L109.959 83.4162L110.857 83.7936L111.781 81.5934L112.699 81.9789L111.909 83.8584L112.807 84.2358L113.597 82.3563L114.508 82.7392L113.583 84.9394L114.481 85.3168L115.837 82.0902L111.315 80.1896Z" fill="white"/>
<path d="M100.421 97.8062L98.4177 99.9064L99.1063 100.595L100.745 98.8593L103.573 101.689L104.361 100.902L101.257 97.7967C100.987 97.526 100.687 97.5308 100.421 97.8062Z" fill="white"/>
<path d="M93.2833 107.367C92.5396 106.142 91.1639 105.699 89.8314 106.507C88.5049 107.312 88.2626 108.737 89.0062 109.962C89.7463 111.182 91.122 111.625 92.4486 110.82C93.7811 110.011 94.0233 108.586 93.2833 107.367ZM92.3315 107.945C92.8188 108.748 92.7343 109.507 91.9432 109.987C91.152 110.467 90.4454 110.188 89.958 109.385C89.4671 108.576 89.5456 107.82 90.3368 107.34C91.1279 106.86 91.8406 107.136 92.3315 107.945Z" fill="white"/>
<path d="M82.0229 115.955L79.2475 111.67L77.0501 112.337L77.1154 117.443L78.1941 117.116L78.0964 112.31L78.3628 112.229L80.9442 116.282L82.0229 115.955Z" fill="white"/>
<path d="M67.5877 114.272L64.0929 114.464L64.1464 115.437L66.5294 115.306L66.584 116.299L64.5483 116.411L64.6017 117.384L66.6374 117.272L66.6916 118.259L64.3085 118.39L64.3619 119.362L67.8566 119.17L67.5877 114.272Z" fill="white"/>
<path d="M46.9807 112.182L44.2158 111.299L43.8974 112.22L46.1756 112.934L44.8676 116.715L45.9198 117.079L47.3552 112.93C47.4803 112.568 47.3447 112.3 46.9807 112.182Z" fill="white"/>
<path d="M35.2611 109.945C36.0378 108.741 35.8343 107.31 34.5243 106.465C33.2202 105.624 31.8329 106.03 31.0562 107.234C30.2833 108.433 30.4867 109.864 31.7909 110.705C33.1009 111.55 34.4882 111.144 35.2611 109.945ZM34.3254 109.342C33.8164 110.132 33.0965 110.388 32.3187 109.886C31.5409 109.385 31.4829 108.627 31.9919 107.838C32.5047 107.042 33.2187 106.782 33.9965 107.284C34.7743 107.785 34.8381 108.547 34.3254 109.342Z" fill="white"/>
<path d="M22.6129 103.576L25.2518 99.2059L23.6914 97.5214L19.128 99.8136L19.894 100.641L24.1728 98.4507L24.362 98.6549L21.8469 102.749L22.6129 103.576Z" fill="white"/>
<path d="M17.8116 89.8588L16.1104 86.8L15.259 87.2735L16.4191 89.3593L15.5495 89.8429L14.5586 88.0612L13.7072 88.5347L14.6982 90.3164L13.8347 90.7967L12.6746 88.7109L11.8233 89.1844L13.5245 92.2432L17.8116 89.8588Z" fill="white"/>
<path d="M10.6777 70.4135L10.2622 67.5409L9.29497 67.6572L9.649 70.0185L5.67663 70.4962L5.80955 71.6016L10.1688 71.0774C10.5488 71.0317 10.7303 70.7926 10.6777 70.4135Z" fill="white"/>
<path d="M7.56258 58.896C8.98568 59.0675 10.1835 58.2586 10.3699 56.7112C10.5556 55.1707 9.58416 54.1004 8.16106 53.929C6.74487 53.7583 5.54707 54.5672 5.36145 56.1077C5.17499 57.6552 6.14639 58.7254 7.56258 58.896ZM7.69576 57.7907C6.76315 57.6783 6.2179 57.1431 6.3286 56.2243C6.43931 55.3055 7.09526 54.9219 8.02788 55.0343C8.9674 55.1475 9.51349 55.6759 9.40278 56.5947C9.29207 57.5135 8.63529 57.9039 7.69576 57.7907Z" fill="white"/>
<path d="M7.75797 44.7358L12.8419 45.1974L13.6742 43.0574L9.61676 39.9563L9.20818 41.0069L13.0491 43.8968L12.9482 44.1562L8.16655 43.6853L7.75797 44.7358Z" fill="white"/>
<path d="M17.9929 34.4183L19.9993 31.5506L19.2012 30.9921L17.8329 32.9477L17.0177 32.3772L18.1864 30.7068L17.3882 30.1483L16.2195 31.8188L15.4099 31.2524L16.7781 29.2968L15.9799 28.7383L13.9735 31.6061L17.9929 34.4183Z" fill="white"/>
<path d="M32.3589 19.4974L34.7603 17.8673L34.2327 17.0484L32.2641 18.3996L30.097 15.0364L29.1611 15.6394L31.5393 19.3302C31.7466 19.6519 32.041 19.7105 32.3589 19.4974Z" fill="white"/>
<path d="M41.3535 11.6583C41.8218 13.013 43.073 13.7364 44.5462 13.2272C46.0127 12.7202 46.5502 11.3786 46.0819 10.0238C45.6159 8.67567 44.3646 7.95233 42.8981 8.45927C41.4249 8.96847 40.8874 10.3101 41.3535 11.6583ZM42.4057 11.2946C42.0988 10.4068 42.3417 9.68231 43.2163 9.37997C44.091 9.07762 44.7228 9.49974 45.0297 10.3876C45.3388 11.2819 45.1026 12.0041 44.2279 12.3065C43.3532 12.6088 42.7149 12.189 42.4057 11.2946Z" fill="white"/>
<path d="M54.1727 5.64013L55.9813 10.4138L58.2699 10.2262L59.2837 5.22105L58.1603 5.31317L57.2416 10.0312L56.9642 10.054L55.2961 5.54801L54.1727 5.64013Z" fill="white"/>
</svg>
